<svg fill="none" xmlns="http://www.w3.org/2000/svg">
<path d="M602 385.976H0C22.1777 320.203 89.057 298.087 145.788 344.38C146.81 342.676 147.833 340.947 148.865 339.202C166.069 310.116 185.936 276.528 252.466 275.908L359.126 194.63C396.998 73.3565 536.232 56.5139 602 99.91V385.976Z" fill="url(#paint0_linear_1_1148)"/>
<path d="M501.125 385.977H187.69L320.964 179.423L344.408 143.088L380.476 198.99L501.125 385.977Z" fill="#1130C5"/>
<path d="M380.424 198.99L356.293 191.222L350.62 219.72L337.899 183.915L323.908 197.198L320.912 179.423L344.355 143.088L380.424 198.99Z" fill="#4270E0"/>
<path d="M558.957 386H344.403L426.862 258.203L451.677 219.743L475.196 256.189L558.957 386Z" fill="#426FE0"/>
<path d="M475.154 256.187H466.036L460.604 270.856L449.007 254.599L440.249 278.019L432.472 258.202H426.82L451.636 219.743L475.154 256.187Z" fill="#7B9DD2"/>
<path d="M471.926 292.651C470.069 292.651 468.398 294.331 468.398 296.197L468.398 382.429C468.398 384.296 470.069 385.976 471.926 385.976H557.699C559.556 385.976 561.226 384.296 561.226 382.429V296.197C561.226 294.331 559.556 292.651 557.699 292.651H471.926Z" fill="url(#paint1_linear_1_1148)"/>
<path d="M521.113 308.005C513.801 308.005 509.072 311.981 507.523 314.921V309.304H492.994V316.303L496.604 316.563C498.237 316.563 498.752 317.254 498.752 319.158L498.693 370.682H515.605V363.852L508.641 363.506V351.577C510.876 352.959 514.489 354.084 517.843 354.084C529.196 354.084 536.675 345.87 536.675 329.963C536.675 314.489 530.655 308.005 521.113 308.005ZM516.209 345.87C513.974 345.87 510.876 345.178 508.641 343.708V323.826C508.641 319.851 512.424 316.389 517.328 316.389C521.882 316.389 526.015 319.332 526.015 330.828C526.015 338.349 523.517 345.87 516.209 345.87Z" fill="white"/>
<path d="M332.179 233.84C332.828 231.423 333.205 228.894 333.205 226.271C333.205 210.249 320.287 197.26 304.35 197.26C299.073 197.26 294.143 198.708 289.887 201.194C285.021 185.103 270.156 173.39 252.559 173.39C235.182 173.39 220.473 184.816 215.422 200.598C211.142 197.614 205.955 195.856 200.352 195.856C186.35 195.856 174.913 206.783 173.948 220.612C154.983 222.437 140.15 238.489 140.15 258.034C140.15 278.803 156.896 295.639 177.554 295.639C181.804 295.639 185.874 294.892 189.682 293.578C194.372 297.8 200.546 300.39 207.336 300.39C211.044 300.39 214.572 299.618 217.777 298.235C224.83 308.383 236.518 315.037 249.767 315.037C261.009 315.037 271.114 310.228 278.233 302.578C282.939 306.875 289.17 309.517 296.027 309.517C306.816 309.517 316.079 303.027 320.214 293.726C323.514 294.942 327.062 295.639 330.781 295.639C347.775 295.639 361.551 281.79 361.551 264.705C361.551 248.094 348.52 234.58 332.179 233.84Z" fill="#00ADF0"/>
<path d="M546.703 148.072C547.024 146.88 547.211 145.63 547.211 144.335C547.211 136.426 540.832 130.015 532.965 130.015C530.359 130.015 527.926 130.73 525.824 131.956C523.423 124.013 516.085 118.23 507.398 118.23C498.818 118.23 491.558 123.871 489.064 131.661C486.95 130.189 484.389 129.32 481.624 129.32C474.712 129.32 469.065 134.716 468.59 141.542C459.226 142.444 451.904 150.368 451.904 160.016C451.904 170.27 460.17 178.581 470.369 178.581C472.467 178.581 474.477 178.212 476.358 177.563C478.671 179.648 481.719 180.926 485.071 180.926C486.902 180.926 488.644 180.545 490.226 179.863C493.708 184.871 499.477 188.157 506.018 188.157C511.569 188.157 516.557 185.783 520.071 182.006C522.395 184.128 525.47 185.432 528.856 185.432C534.181 185.432 538.755 182.228 540.797 177.637C542.425 178.237 544.177 178.581 546.012 178.581C554.403 178.581 561.203 171.744 561.203 163.31C561.203 155.11 554.77 148.438 546.703 148.072Z" fill="#00ADF0"/>
<path d="M116.709 320.196C116.878 319.562 116.978 318.9 116.978 318.214C116.978 314.016 113.593 310.614 109.42 310.614C108.038 310.614 106.746 310.994 105.631 311.646C104.356 307.43 100.463 304.363 95.8547 304.363C91.302 304.363 87.4493 307.355 86.1277 311.49C85.0056 310.707 83.6465 310.247 82.1806 310.247C78.5114 310.247 75.5173 313.109 75.2644 316.731C70.2967 317.209 66.412 321.414 66.412 326.533C66.412 331.974 70.7972 336.382 76.2084 336.382C77.3216 336.382 78.3885 336.187 79.386 335.843C80.6132 336.948 82.2305 337.627 84.0099 337.627C84.9806 337.627 85.9051 337.424 86.744 337.063C88.5911 339.72 91.6529 341.464 95.1226 341.464C98.0669 341.464 100.714 340.204 102.579 338.2C103.811 339.326 105.443 340.017 107.24 340.017C110.065 340.017 112.491 338.318 113.574 335.883C114.439 336.2 115.367 336.382 116.342 336.382C120.793 336.382 124.401 332.754 124.401 328.279C124.401 323.93 120.989 320.39 116.709 320.196Z" fill="#00ADF0"/>
<path d="M154.425 121.043C154.682 120.085 154.831 119.084 154.831 118.045C154.831 111.697 149.714 106.552 143.401 106.552C141.31 106.552 139.358 107.125 137.671 108.11C135.744 101.737 129.856 97.0957 122.886 97.0957C116.002 97.0957 110.176 101.623 108.173 107.874C106.478 106.692 104.424 105.995 102.205 105.995C96.6582 105.995 92.1269 110.324 91.744 115.803C84.2328 116.527 78.3567 122.885 78.3567 130.627C78.3567 138.853 84.9898 145.523 93.1725 145.523C94.8575 145.523 96.4694 145.228 97.9781 144.707C99.8358 146.379 102.281 147.405 104.971 147.405C106.44 147.405 107.837 147.099 109.107 146.551C111.901 150.571 116.531 153.207 121.778 153.207C126.233 153.207 130.235 151.302 133.056 148.272C134.919 149.975 137.386 151.021 140.104 151.021C144.377 151.021 148.047 148.449 149.685 144.766C150.993 145.248 152.398 145.523 153.871 145.523C160.604 145.523 166.06 140.037 166.06 133.27C166.06 126.689 160.898 121.336 154.425 121.043Z" fill="#00ADF0"/>
<path d="M161.433 162.464C160.878 162.185 160.212 161.906 159.546 161.572C157.66 160.679 154.275 158.727 153.442 158.448C152.61 158.169 150.557 160.4 150.224 160.679C149.392 160.679 146.284 162.687 145.285 163.245C145.119 163.301 145.507 163.803 146.062 163.691C146.617 163.58 149.225 162.52 149.225 162.52L153.331 162.576C153.331 162.576 156.05 164.807 157.16 165.365C158.825 166.258 161.766 166.258 162.82 165.811L194.005 165.979L200.719 156.551L161.433 162.464Z" fill="url(#paint2_linear_1_1148)"/>
<path d="M180.42 176.824C180.42 176.824 171.366 187.862 169.869 190.514C165.092 198.686 167.872 203.703 169.797 206.642C170.724 207.86 179.85 220.404 190.188 234.524L215.141 268.858L215.213 278.104L216.639 277.889L218.278 276.957L218.492 270.865L219.918 268.428C219.918 268.428 219.633 267.711 218.92 266.779C206.158 243.556 196.89 203.201 184.912 199.187C202.166 195.675 240.309 194.457 238.455 180.05C237.956 175.892 227.19 174.745 215.141 174.745C198.957 174.745 180.42 176.824 180.42 176.824Z" fill="url(#paint3_linear_1_1148)"/>
<path d="M212.771 115.499C212.771 115.499 206.077 157.679 205.514 160.797C205.338 161.781 205.261 162.242 204.746 163.01C192.006 159.342 197.746 166.222 193.812 166.237C183.57 166.276 174.529 166.217 174.529 166.217L173.197 160.644L194.989 157.133C194.989 157.133 195.283 145.259 196.617 128.799C198.06 110.985 212.771 115.499 212.771 115.499Z" fill="#002E69"/>
<path d="M245.848 164.73C245.848 164.73 212.057 157.159 204.783 135.975C197.199 113.87 212.376 104.981 212.376 104.981L245.848 164.73Z" fill="#002E69"/>
<path d="M241.676 173.697C238.605 162.381 227.249 151.558 213.126 145.604C202.33 141.052 205.591 102.099 205.591 102.099C205.591 102.099 206.274 102.3 207.469 102.337C212.324 109.858 238.677 121.732 248.111 126.718C264.188 149.384 273.568 172.628 273.568 172.628C273.568 172.628 249.344 179.293 241.676 173.697Z" fill="#E8F5F7"/>
<path d="M272.374 166.226C272.374 166.226 252.587 131.222 243.065 117.827C237.191 109.567 224.081 106.528 215.539 105.421C215.083 106.911 214.513 111.567 214.057 114.926C212.924 129.188 216.942 135.844 243.104 160.811C251.459 169.356 272.374 166.226 272.374 166.226Z" fill="#002E69"/>
<path d="M176.228 279.124L181.461 271.002C181.461 271.002 164.991 200.991 162.713 193.09C160.435 185.188 163.771 172.644 176.533 172.63C189.293 172.617 254.288 173.546 254.288 173.546C254.288 173.546 261.653 201.028 225.433 198.052C210.761 196.845 218.027 196.893 179.758 192.44C185.066 208.221 184.201 256.68 185.72 271.68C184.84 272.93 178.868 280.603 178.868 280.603L176.228 279.124Z" fill="#EFEFDD"/>
<path d="M176.202 279.018C175.113 280.094 174.474 281.167 172.271 281.491C171.611 281.584 171.911 282.406 171.911 282.406C171.911 282.406 176.91 282.388 178.018 282.388C179.536 282.388 180.558 277.995 182.594 276.396C183.529 279.213 183.123 282.302 183.123 282.302L184.586 282.316C184.586 282.316 184.35 277.428 186.026 274.974C187.275 273.148 185.697 271.579 185.697 271.579C185.697 271.579 184.589 272.494 182.046 275.569C179.19 279.021 177.432 279.267 176.202 279.018Z" fill="#002E69"/>
<path d="M273.431 172.429C279.961 184.337 276.564 201.387 256.517 203.218C251.051 203.562 217.221 203.029 205.357 203.496C202.169 203.308 193.74 206.972 191.408 209.785C180.157 205.315 181.893 172.494 181.893 172.494C181.893 172.494 259.695 172.734 273.431 172.429Z" fill="#002E69"/>
<path d="M210.091 131.097C210.091 131.097 207.332 119.871 210.87 106.783C210.022 107.3 207.655 108.239 206.656 108.958C204.053 127.575 210.091 131.097 210.091 131.097Z" fill="#9ED6E3"/>
<path d="M214.572 166.1L173.265 155.603L166.334 151.895C166.334 151.895 165.321 151.357 164.564 150.958C163.807 150.548 161.349 152.226 161.349 152.226C161.349 152.226 158.034 154.214 156.593 155.021C156.428 155.111 156.802 155.691 157.356 155.585C158.209 155.424 160.72 154.187 160.72 154.187L167.652 158.046C167.652 158.046 166.325 159.084 165.228 159.208C163.693 159.38 163.72 161.457 163.72 161.457C163.72 161.457 171.012 159.571 171.829 159.659C172.145 159.693 172.586 159.602 173.01 159.48C177.99 161.763 191.055 167.277 200.563 171.139C212.866 176.13 214.572 166.1 214.572 166.1Z" fill="#F0F0DB"/>
<path d="M201.366 161.959L212.186 164.134C212.186 164.134 213.494 142.309 213.975 124.988C214.247 115.159 225.679 114.348 225.679 114.348C225.679 114.348 238.988 120.151 233.334 132.677C232.463 134.713 227.898 164.598 227.373 167.112C226.158 172.912 218.49 178.256 209.301 174.821C204.55 173.045 200.57 171.31 199.316 170.776L201.366 161.959Z" fill="#002E69"/>
<path d="M187.014 78.002C187.014 78.002 177.246 80.9477 177.102 87.9475C176.906 97.5707 186.152 101.229 186.152 101.229L187.014 78.002Z" fill="#26C2A3"/>
<path d="M195.41 99.2504C196.637 101.101 195.008 104.016 193.59 105.569C191.178 108.249 190.416 109.653 189.76 110.419C197.335 108.398 200.023 111.164 207.006 114.908C209.08 109.994 211.302 107.356 210.857 103.505C206.985 102.378 205.123 93.9531 204.805 92.6341L192.532 86.8475C192.532 86.8475 191.093 92.8043 195.41 99.2504Z" fill="url(#paint4_linear_1_1148)"/>
<path d="M190.21 110.195C192.878 108.695 195.087 107.207 196.216 104.601C197.664 101.272 195.545 94.8257 195.545 94.8257C195.545 94.8257 196.913 92.2882 195.91 90.3937C194.893 88.4758 194.834 87.3334 191.291 88.1356C186.042 89.3264 186.733 81.0444 186.733 81.0444L185.178 81.7983C185.178 81.7983 183.716 82.6614 182.329 84.3071C181.504 85.283 179.821 90.0839 182.063 95.4918C181.871 99.3525 180.841 102.418 180.841 102.418C180.841 102.418 181.263 102.989 182.076 102.685C182.799 102.413 183.417 102.832 183.417 102.832C183.417 102.832 183.737 103.702 183.495 104.807C183.714 105.167 184.24 105.624 184.917 105.616C184.703 106.007 184.901 106.501 185.041 106.814C187.1 107.491 186.45 110.616 188.071 110.974C188.655 111.101 189.012 110.869 190.21 110.195Z" fill="#F0F0DB"/>
<path d="M184.854 96.7435C184.985 96.9476 185.08 97.1374 185.855 96.7524C186.603 96.38 187.488 95.7604 188.172 95.1265C188.336 94.9743 186.838 95.413 184.364 95.3664C183.671 95.3521 184.211 95.5777 184.524 95.8016C184.483 95.9985 184.658 96.4301 184.854 96.7435Z" fill="#002E69"/>
<path d="M196.611 75.3093C185.364 73.139 181.02 83.0362 180.762 84.9128C183.978 84.6084 186.046 85.3014 187.144 88.7664C188.61 93.3971 189.457 97.3223 196.09 103.269C200.189 106.94 195.757 114.388 193.782 116.597C212.775 120.702 218.257 106.446 218.369 101.07C218.597 90.1918 210.847 78.058 196.611 75.3093Z" fill="#26C2A3"/>
<path d="M185.43 167.545V168.188C185.43 169.995 184.131 171.462 182.53 171.462H147.267C145.667 171.462 144.37 169.995 144.37 168.188V167.545H185.43Z" fill="#002E69"/>
<path d="M144.248 167.33L143.917 167.516C142.802 168.261 142.285 168.046 141.491 166.651L126.33 139.764C125.534 138.367 125.475 137.506 126.551 136.792L126.88 136.604L144.248 167.33Z" fill="#002E69"/>
<path d="M215.155 277.839C214.9 279.356 215.007 280.599 213.414 282.158C212.937 282.626 213.657 283.115 213.657 283.115C213.657 283.115 217.695 280.151 218.592 279.497C219.821 278.602 218.085 274.444 218.802 271.946C221.203 273.676 222.676 276.419 222.676 276.419L223.87 275.569C223.87 275.569 220.824 271.745 220.751 268.771C220.698 266.558 218.505 266.216 218.505 266.216C218.505 266.216 218.14 267.611 217.874 271.6C217.577 276.081 216.296 277.315 215.155 277.839Z" fill="#002E69"/>
<path d="M338.985 29.842C339.305 28.6494 339.492 27.3995 339.492 26.1048C339.492 18.1953 333.114 11.7846 325.246 11.7846C322.641 11.7846 320.207 12.4991 318.106 13.7257C315.705 5.78217 308.366 0 299.679 0C291.1 0 283.84 5.6407 281.346 13.4302C279.232 11.9583 276.67 11.0898 273.906 11.0898C266.993 11.0898 261.347 16.4852 260.871 23.3113C251.508 24.2138 244.185 32.1377 244.185 41.786C244.185 52.0395 252.452 60.3501 262.651 60.3501C264.749 60.3501 266.758 59.9812 268.639 59.333C270.953 61.4174 274 62.6959 277.353 62.6959C279.184 62.6959 280.926 62.3145 282.507 61.6323C285.989 66.6408 291.759 69.9268 298.299 69.9268C303.851 69.9268 308.838 67.5523 312.353 63.7757C314.677 65.8977 317.751 67.2013 321.137 67.2013C326.463 67.2013 331.037 63.9978 333.078 59.4064C334.706 60.0063 336.459 60.3501 338.293 60.3501C346.685 60.3501 353.485 53.5132 353.485 45.079C353.485 36.8794 347.051 30.2073 338.985 29.842Z" fill="#DFF7FF"/>
<path d="M402.38 394.504C402.915 392.526 403.227 390.452 403.227 388.305C403.227 375.184 392.583 364.549 379.454 364.549C375.106 364.549 371.046 365.734 367.538 367.769C363.532 354.592 351.286 345 336.79 345C322.473 345 310.358 354.357 306.196 367.279C302.668 364.837 298.394 363.397 293.781 363.397C282.246 363.397 272.823 372.347 272.03 383.671C256.405 385.168 244.185 398.312 244.185 414.318C244.185 431.327 257.98 445.113 274.999 445.113C278.501 445.113 281.853 444.502 284.992 443.426C288.853 446.884 293.939 449.005 299.532 449.005C302.588 449.005 305.495 448.372 308.134 447.24C313.945 455.549 323.572 461 334.487 461C343.751 461 352.074 457.061 357.938 450.796C361.817 454.316 366.947 456.479 372.597 456.479C381.484 456.479 389.117 451.164 392.523 443.548C395.24 444.543 398.165 445.113 401.226 445.113C415.229 445.113 426.577 433.772 426.577 419.781C426.577 406.178 415.841 395.11 402.38 394.504Z" fill="#DFF7FF"/>
<path d="M255.779 107.23C255.919 106.701 256.001 106.147 256.001 105.573C256.001 102.066 253.209 99.2244 249.766 99.2244C248.625 99.2244 247.56 99.5411 246.64 100.085C245.589 96.5634 242.377 94 238.575 94C234.819 94 231.642 96.5006 230.55 99.9539C229.625 99.3014 228.504 98.9163 227.294 98.9163C224.268 98.9163 221.797 101.308 221.589 104.334C217.49 104.734 214.285 108.247 214.285 112.525C214.285 117.07 217.903 120.754 222.367 120.754C223.286 120.754 224.165 120.591 224.989 120.304C226.001 121.228 227.335 121.794 228.802 121.794C229.604 121.794 230.366 121.625 231.059 121.323C232.583 123.543 235.108 125 237.971 125C240.401 125 242.584 123.947 244.122 122.273C245.139 123.214 246.485 123.792 247.967 123.792C250.298 123.792 252.3 122.372 253.193 120.336C253.906 120.602 254.673 120.754 255.476 120.754C259.149 120.754 262.126 117.724 262.126 113.984C262.126 110.349 259.31 107.392 255.779 107.23Z" fill="#F0FBFF"/>
<defs>
<linearGradient id="paint0_linear_1_1148" x1="623.753" y1="193.652" x2="75.7176" y2="362.763" gradientUnits="userSpaceOnUse">
<stop stop-color="#D5F4FF"/>
<stop offset="1" stop-color="#F2FCFF"/>
</linearGradient>
<linearGradient id="paint1_linear_1_1148" x1="468.398" y1="385.975" x2="561.721" y2="293.149" gradientUnits="userSpaceOnUse">
<stop stop-color="#4760AC"/>
<stop offset="0.07" stop-color="#4760AC"/>
<stop offset="1" stop-color="#52ABE0"/>
</linearGradient>
<linearGradient id="paint2_linear_1_1148" x1="145.23" y1="166.112" x2="200.719" y2="166.112" gradientUnits="userSpaceOnUse">
<stop stop-color="#EFEFDD"/>
<stop offset="0.02" stop-color="#EFEFDD"/>
<stop offset="1" stop-color="#52ABE0"/>
</linearGradient>
<linearGradient id="paint3_linear_1_1148" x1="167.231" y1="278.072" x2="238.526" y2="278.072" gradientUnits="userSpaceOnUse">
<stop stop-color="#52ABE0"/>
<stop offset="0.75" stop-color="#EFEFDD"/>
<stop offset="1" stop-color="#EFEFDD"/>
</linearGradient>
<linearGradient id="paint4_linear_1_1148" x1="189.76" y1="114.903" x2="210.921" y2="114.903" gradientUnits="userSpaceOnUse">
<stop stop-color="#52ABE0"/>
<stop offset="0.98" stop-color="#EFEFDD"/>
<stop offset="1" stop-color="#EFEFDD"/>
</linearGradient>
</defs>
</svg>
